<mxfile host="app.diagrams.net" modified="2022-04-21T14:30:16.022Z" agent="5.0 (X11; Linux x86_64) AppleWebKit/537.36 (KHTML, like Gecko) Chrome/100.0.4896.127 Safari/537.36" etag="2_ql9CSYnUoBmoORlirM" version="17.4.6" type="github">
  <diagram id="C5RBs43oDa-KdzZeNtuy" name="Page-1">
    <mxGraphModel dx="459" dy="305" grid="1" gridSize="10" guides="1" tooltips="1" connect="1" arrows="1" fold="1" page="1" pageScale="1" pageWidth="827" pageHeight="1169" math="0" shadow="0">
      <root>
        <mxCell id="WIyWlLk6GJQsqaUBKTNV-0" />
        <mxCell id="WIyWlLk6GJQsqaUBKTNV-1" parent="WIyWlLk6GJQsqaUBKTNV-0" />
        <mxCell id="6hNlM7lMKpfNJvF36o9Y-10" style="edgeStyle=orthogonalEdgeStyle;rounded=0;orthogonalLoop=1;jettySize=auto;html=1;" parent="WIyWlLk6GJQsqaUBKTNV-1" source="zkfFHV4jXpPFQw0GAbJ--0" target="6hNlM7lMKpfNJvF36o9Y-0" edge="1">
          <mxGeometry relative="1" as="geometry">
            <Array as="points">
              <mxPoint x="100" y="530" />
            </Array>
          </mxGeometry>
        </mxCell>
        <mxCell id="6hNlM7lMKpfNJvF36o9Y-11" value="1..*" style="edgeLabel;html=1;align=center;verticalAlign=middle;resizable=0;points=[];" parent="6hNlM7lMKpfNJvF36o9Y-10" vertex="1" connectable="0">
          <mxGeometry x="0.6991" y="-2" relative="1" as="geometry">
            <mxPoint x="9" y="5" as="offset" />
          </mxGeometry>
        </mxCell>
        <mxCell id="6hNlM7lMKpfNJvF36o9Y-28" value="0..*" style="edgeLabel;html=1;align=center;verticalAlign=middle;resizable=0;points=[];" parent="6hNlM7lMKpfNJvF36o9Y-10" vertex="1" connectable="0">
          <mxGeometry x="-0.843" y="-1" relative="1" as="geometry">
            <mxPoint x="-12" as="offset" />
          </mxGeometry>
        </mxCell>
        <mxCell id="zkfFHV4jXpPFQw0GAbJ--0" value="User" style="swimlane;fontStyle=2;align=center;verticalAlign=top;childLayout=stackLayout;horizontal=1;startSize=26;horizontalStack=0;resizeParent=1;resizeLast=0;collapsible=1;marginBottom=0;rounded=0;shadow=0;strokeWidth=1;" parent="WIyWlLk6GJQsqaUBKTNV-1" vertex="1">
          <mxGeometry x="223" y="483" width="146" height="260" as="geometry">
            <mxRectangle x="230" y="140" width="160" height="26" as="alternateBounds" />
          </mxGeometry>
        </mxCell>
        <mxCell id="zkfFHV4jXpPFQw0GAbJ--1" value="- id: Integer" style="text;align=left;verticalAlign=top;spacingLeft=4;spacingRight=4;overflow=hidden;rotatable=0;points=[[0,0.5],[1,0.5]];portConstraint=eastwest;" parent="zkfFHV4jXpPFQw0GAbJ--0" vertex="1">
          <mxGeometry y="26" width="146" height="26" as="geometry" />
        </mxCell>
        <mxCell id="6hNlM7lMKpfNJvF36o9Y-4" value="- firstName: String" style="text;align=left;verticalAlign=top;spacingLeft=4;spacingRight=4;overflow=hidden;rotatable=0;points=[[0,0.5],[1,0.5]];portConstraint=eastwest;" parent="zkfFHV4jXpPFQw0GAbJ--0" vertex="1">
          <mxGeometry y="52" width="146" height="26" as="geometry" />
        </mxCell>
        <mxCell id="6hNlM7lMKpfNJvF36o9Y-26" value="- lastName: String" style="text;align=left;verticalAlign=top;spacingLeft=4;spacingRight=4;overflow=hidden;rotatable=0;points=[[0,0.5],[1,0.5]];portConstraint=eastwest;" parent="zkfFHV4jXpPFQw0GAbJ--0" vertex="1">
          <mxGeometry y="78" width="146" height="26" as="geometry" />
        </mxCell>
        <mxCell id="6hNlM7lMKpfNJvF36o9Y-24" value="- username: String" style="text;align=left;verticalAlign=top;spacingLeft=4;spacingRight=4;overflow=hidden;rotatable=0;points=[[0,0.5],[1,0.5]];portConstraint=eastwest;" parent="zkfFHV4jXpPFQw0GAbJ--0" vertex="1">
          <mxGeometry y="104" width="146" height="26" as="geometry" />
        </mxCell>
        <mxCell id="6hNlM7lMKpfNJvF36o9Y-6" value="- email: String" style="text;align=left;verticalAlign=top;spacingLeft=4;spacingRight=4;overflow=hidden;rotatable=0;points=[[0,0.5],[1,0.5]];portConstraint=eastwest;" parent="zkfFHV4jXpPFQw0GAbJ--0" vertex="1">
          <mxGeometry y="130" width="146" height="26" as="geometry" />
        </mxCell>
        <mxCell id="6hNlM7lMKpfNJvF36o9Y-7" value="- password: String" style="text;align=left;verticalAlign=top;spacingLeft=4;spacingRight=4;overflow=hidden;rotatable=0;points=[[0,0.5],[1,0.5]];portConstraint=eastwest;" parent="zkfFHV4jXpPFQw0GAbJ--0" vertex="1">
          <mxGeometry y="156" width="146" height="26" as="geometry" />
        </mxCell>
        <mxCell id="9pqVWcKdIJiDRD3snbKj-0" value="- address: String" style="text;align=left;verticalAlign=top;spacingLeft=4;spacingRight=4;overflow=hidden;rotatable=0;points=[[0,0.5],[1,0.5]];portConstraint=eastwest;" vertex="1" parent="zkfFHV4jXpPFQw0GAbJ--0">
          <mxGeometry y="182" width="146" height="26" as="geometry" />
        </mxCell>
        <mxCell id="6hNlM7lMKpfNJvF36o9Y-8" value="- dateOfBirth: LocalDate" style="text;align=left;verticalAlign=top;spacingLeft=4;spacingRight=4;overflow=hidden;rotatable=0;points=[[0,0.5],[1,0.5]];portConstraint=eastwest;" parent="zkfFHV4jXpPFQw0GAbJ--0" vertex="1">
          <mxGeometry y="208" width="146" height="26" as="geometry" />
        </mxCell>
        <mxCell id="6hNlM7lMKpfNJvF36o9Y-9" value="- isActive: Boolean" style="text;align=left;verticalAlign=top;spacingLeft=4;spacingRight=4;overflow=hidden;rotatable=0;points=[[0,0.5],[1,0.5]];portConstraint=eastwest;" parent="zkfFHV4jXpPFQw0GAbJ--0" vertex="1">
          <mxGeometry y="234" width="146" height="26" as="geometry" />
        </mxCell>
        <mxCell id="6hNlM7lMKpfNJvF36o9Y-0" value="Role" style="swimlane;fontStyle=0;childLayout=stackLayout;horizontal=1;startSize=26;fillColor=none;horizontalStack=0;resizeParent=1;resizeParentMax=0;resizeLast=0;collapsible=1;marginBottom=0;" parent="WIyWlLk6GJQsqaUBKTNV-1" vertex="1">
          <mxGeometry x="30" y="585" width="140" height="104" as="geometry" />
        </mxCell>
        <mxCell id="6hNlM7lMKpfNJvF36o9Y-1" value="- roleId: Short" style="text;strokeColor=none;fillColor=none;align=left;verticalAlign=top;spacingLeft=4;spacingRight=4;overflow=hidden;rotatable=0;points=[[0,0.5],[1,0.5]];portConstraint=eastwest;" parent="6hNlM7lMKpfNJvF36o9Y-0" vertex="1">
          <mxGeometry y="26" width="140" height="26" as="geometry" />
        </mxCell>
        <mxCell id="6hNlM7lMKpfNJvF36o9Y-2" value="- name: String" style="text;strokeColor=none;fillColor=none;align=left;verticalAlign=top;spacingLeft=4;spacingRight=4;overflow=hidden;rotatable=0;points=[[0,0.5],[1,0.5]];portConstraint=eastwest;" parent="6hNlM7lMKpfNJvF36o9Y-0" vertex="1">
          <mxGeometry y="52" width="140" height="26" as="geometry" />
        </mxCell>
        <mxCell id="6hNlM7lMKpfNJvF36o9Y-3" value="- description: String" style="text;strokeColor=none;fillColor=none;align=left;verticalAlign=top;spacingLeft=4;spacingRight=4;overflow=hidden;rotatable=0;points=[[0,0.5],[1,0.5]];portConstraint=eastwest;" parent="6hNlM7lMKpfNJvF36o9Y-0" vertex="1">
          <mxGeometry y="78" width="140" height="26" as="geometry" />
        </mxCell>
        <mxCell id="6hNlM7lMKpfNJvF36o9Y-32" style="edgeStyle=orthogonalEdgeStyle;rounded=0;orthogonalLoop=1;jettySize=auto;html=1;endArrow=open;endFill=0;endSize=10;" parent="WIyWlLk6GJQsqaUBKTNV-1" source="6hNlM7lMKpfNJvF36o9Y-20" target="6hNlM7lMKpfNJvF36o9Y-29" edge="1">
          <mxGeometry relative="1" as="geometry">
            <mxPoint x="519" y="733" as="targetPoint" />
            <Array as="points">
              <mxPoint x="579" y="478" />
              <mxPoint x="579" y="478" />
            </Array>
          </mxGeometry>
        </mxCell>
        <mxCell id="6hNlM7lMKpfNJvF36o9Y-33" value="0..1" style="edgeLabel;html=1;align=center;verticalAlign=middle;resizable=0;points=[];" parent="6hNlM7lMKpfNJvF36o9Y-32" vertex="1" connectable="0">
          <mxGeometry x="0.7601" relative="1" as="geometry">
            <mxPoint y="20" as="offset" />
          </mxGeometry>
        </mxCell>
        <mxCell id="6hNlM7lMKpfNJvF36o9Y-34" value="1" style="edgeLabel;html=1;align=center;verticalAlign=middle;resizable=0;points=[];" parent="6hNlM7lMKpfNJvF36o9Y-32" vertex="1" connectable="0">
          <mxGeometry x="-0.7478" relative="1" as="geometry">
            <mxPoint y="-3" as="offset" />
          </mxGeometry>
        </mxCell>
        <mxCell id="6hNlM7lMKpfNJvF36o9Y-89" style="edgeStyle=orthogonalEdgeStyle;rounded=0;orthogonalLoop=1;jettySize=auto;html=1;endArrow=open;endFill=0;endSize=10;" parent="WIyWlLk6GJQsqaUBKTNV-1" source="6hNlM7lMKpfNJvF36o9Y-20" target="6hNlM7lMKpfNJvF36o9Y-55" edge="1">
          <mxGeometry relative="1" as="geometry">
            <Array as="points">
              <mxPoint x="610" y="513" />
              <mxPoint x="610" y="623" />
              <mxPoint x="729" y="623" />
            </Array>
          </mxGeometry>
        </mxCell>
        <mxCell id="6hNlM7lMKpfNJvF36o9Y-90" value="1" style="edgeLabel;html=1;align=center;verticalAlign=middle;resizable=0;points=[];" parent="6hNlM7lMKpfNJvF36o9Y-89" vertex="1" connectable="0">
          <mxGeometry x="0.8464" y="1" relative="1" as="geometry">
            <mxPoint as="offset" />
          </mxGeometry>
        </mxCell>
        <mxCell id="6hNlM7lMKpfNJvF36o9Y-91" value="0..*" style="edgeLabel;html=1;align=center;verticalAlign=middle;resizable=0;points=[];" parent="6hNlM7lMKpfNJvF36o9Y-89" vertex="1" connectable="0">
          <mxGeometry x="-0.9183" y="-2" relative="1" as="geometry">
            <mxPoint as="offset" />
          </mxGeometry>
        </mxCell>
        <mxCell id="6hNlM7lMKpfNJvF36o9Y-20" value="Organization" style="swimlane;fontStyle=0;align=center;verticalAlign=top;childLayout=stackLayout;horizontal=1;startSize=26;horizontalStack=0;resizeParent=1;resizeLast=0;collapsible=1;marginBottom=0;rounded=0;shadow=0;strokeWidth=1;" parent="WIyWlLk6GJQsqaUBKTNV-1" vertex="1">
          <mxGeometry x="439" y="443" width="120" height="78" as="geometry">
            <mxRectangle x="340" y="380" width="170" height="26" as="alternateBounds" />
          </mxGeometry>
        </mxCell>
        <mxCell id="6hNlM7lMKpfNJvF36o9Y-21" value="- id: Integer" style="text;align=left;verticalAlign=top;spacingLeft=4;spacingRight=4;overflow=hidden;rotatable=0;points=[[0,0.5],[1,0.5]];portConstraint=eastwest;" parent="6hNlM7lMKpfNJvF36o9Y-20" vertex="1">
          <mxGeometry y="26" width="120" height="26" as="geometry" />
        </mxCell>
        <mxCell id="6hNlM7lMKpfNJvF36o9Y-88" value="- name: String" style="text;align=left;verticalAlign=top;spacingLeft=4;spacingRight=4;overflow=hidden;rotatable=0;points=[[0,0.5],[1,0.5]];portConstraint=eastwest;" parent="6hNlM7lMKpfNJvF36o9Y-20" vertex="1">
          <mxGeometry y="52" width="120" height="26" as="geometry" />
        </mxCell>
        <mxCell id="6hNlM7lMKpfNJvF36o9Y-41" style="edgeStyle=orthogonalEdgeStyle;rounded=0;orthogonalLoop=1;jettySize=auto;html=1;endArrow=open;endFill=0;endSize=10;" parent="WIyWlLk6GJQsqaUBKTNV-1" source="6hNlM7lMKpfNJvF36o9Y-20" target="zkfFHV4jXpPFQw0GAbJ--0" edge="1">
          <mxGeometry relative="1" as="geometry">
            <mxPoint x="479" y="573" as="targetPoint" />
            <Array as="points">
              <mxPoint x="480" y="573" />
            </Array>
          </mxGeometry>
        </mxCell>
        <mxCell id="6hNlM7lMKpfNJvF36o9Y-42" value="1" style="edgeLabel;html=1;align=center;verticalAlign=middle;resizable=0;points=[];" parent="6hNlM7lMKpfNJvF36o9Y-41" vertex="1" connectable="0">
          <mxGeometry x="0.8372" relative="1" as="geometry">
            <mxPoint x="13" as="offset" />
          </mxGeometry>
        </mxCell>
        <mxCell id="6hNlM7lMKpfNJvF36o9Y-43" value="0..*" style="edgeLabel;html=1;align=center;verticalAlign=middle;resizable=0;points=[];" parent="6hNlM7lMKpfNJvF36o9Y-41" vertex="1" connectable="0">
          <mxGeometry x="-0.8446" relative="1" as="geometry">
            <mxPoint as="offset" />
          </mxGeometry>
        </mxCell>
        <mxCell id="6hNlM7lMKpfNJvF36o9Y-47" value="owner" style="edgeLabel;html=1;align=center;verticalAlign=middle;resizable=0;points=[];" parent="6hNlM7lMKpfNJvF36o9Y-41" vertex="1" connectable="0">
          <mxGeometry x="-0.2209" relative="1" as="geometry">
            <mxPoint as="offset" />
          </mxGeometry>
        </mxCell>
        <mxCell id="6hNlM7lMKpfNJvF36o9Y-29" value="OrganizationAddress" style="swimlane;fontStyle=0;align=center;verticalAlign=top;childLayout=stackLayout;horizontal=1;startSize=26;horizontalStack=0;resizeParent=1;resizeLast=0;collapsible=1;marginBottom=0;rounded=0;shadow=0;strokeWidth=1;" parent="WIyWlLk6GJQsqaUBKTNV-1" vertex="1">
          <mxGeometry x="639" y="403" width="130" height="190" as="geometry">
            <mxRectangle x="340" y="380" width="170" height="26" as="alternateBounds" />
          </mxGeometry>
        </mxCell>
        <mxCell id="6hNlM7lMKpfNJvF36o9Y-30" value="- id: Long" style="text;align=left;verticalAlign=top;spacingLeft=4;spacingRight=4;overflow=hidden;rotatable=0;points=[[0,0.5],[1,0.5]];portConstraint=eastwest;" parent="6hNlM7lMKpfNJvF36o9Y-29" vertex="1">
          <mxGeometry y="26" width="130" height="26" as="geometry" />
        </mxCell>
        <mxCell id="6hNlM7lMKpfNJvF36o9Y-35" value="- country: String" style="text;align=left;verticalAlign=top;spacingLeft=4;spacingRight=4;overflow=hidden;rotatable=0;points=[[0,0.5],[1,0.5]];portConstraint=eastwest;" parent="6hNlM7lMKpfNJvF36o9Y-29" vertex="1">
          <mxGeometry y="52" width="130" height="26" as="geometry" />
        </mxCell>
        <mxCell id="6hNlM7lMKpfNJvF36o9Y-36" value="- city: String" style="text;align=left;verticalAlign=top;spacingLeft=4;spacingRight=4;overflow=hidden;rotatable=0;points=[[0,0.5],[1,0.5]];portConstraint=eastwest;" parent="6hNlM7lMKpfNJvF36o9Y-29" vertex="1">
          <mxGeometry y="78" width="130" height="26" as="geometry" />
        </mxCell>
        <mxCell id="6hNlM7lMKpfNJvF36o9Y-37" value="- state: String" style="text;align=left;verticalAlign=top;spacingLeft=4;spacingRight=4;overflow=hidden;rotatable=0;points=[[0,0.5],[1,0.5]];portConstraint=eastwest;" parent="6hNlM7lMKpfNJvF36o9Y-29" vertex="1">
          <mxGeometry y="104" width="130" height="26" as="geometry" />
        </mxCell>
        <mxCell id="6hNlM7lMKpfNJvF36o9Y-38" value="- zipCode: String" style="text;align=left;verticalAlign=top;spacingLeft=4;spacingRight=4;overflow=hidden;rotatable=0;points=[[0,0.5],[1,0.5]];portConstraint=eastwest;" parent="6hNlM7lMKpfNJvF36o9Y-29" vertex="1">
          <mxGeometry y="130" width="130" height="26" as="geometry" />
        </mxCell>
        <mxCell id="6hNlM7lMKpfNJvF36o9Y-39" value="- address: String" style="text;align=left;verticalAlign=top;spacingLeft=4;spacingRight=4;overflow=hidden;rotatable=0;points=[[0,0.5],[1,0.5]];portConstraint=eastwest;" parent="6hNlM7lMKpfNJvF36o9Y-29" vertex="1">
          <mxGeometry y="156" width="130" height="26" as="geometry" />
        </mxCell>
        <mxCell id="6hNlM7lMKpfNJvF36o9Y-52" style="edgeStyle=orthogonalEdgeStyle;rounded=0;orthogonalLoop=1;jettySize=auto;html=1;endArrow=open;endFill=0;endSize=10;" parent="WIyWlLk6GJQsqaUBKTNV-1" source="6hNlM7lMKpfNJvF36o9Y-48" target="6hNlM7lMKpfNJvF36o9Y-20" edge="1">
          <mxGeometry relative="1" as="geometry">
            <Array as="points">
              <mxPoint x="530" y="573" />
              <mxPoint x="530" y="573" />
            </Array>
          </mxGeometry>
        </mxCell>
        <mxCell id="6hNlM7lMKpfNJvF36o9Y-53" value="0..1" style="edgeLabel;html=1;align=center;verticalAlign=middle;resizable=0;points=[];" parent="6hNlM7lMKpfNJvF36o9Y-52" vertex="1" connectable="0">
          <mxGeometry x="0.7386" y="2" relative="1" as="geometry">
            <mxPoint x="2" y="6" as="offset" />
          </mxGeometry>
        </mxCell>
        <mxCell id="6hNlM7lMKpfNJvF36o9Y-54" value="*" style="edgeLabel;html=1;align=center;verticalAlign=middle;resizable=0;points=[];" parent="6hNlM7lMKpfNJvF36o9Y-52" vertex="1" connectable="0">
          <mxGeometry x="-0.7753" relative="1" as="geometry">
            <mxPoint as="offset" />
          </mxGeometry>
        </mxCell>
        <mxCell id="6hNlM7lMKpfNJvF36o9Y-68" style="edgeStyle=orthogonalEdgeStyle;rounded=0;orthogonalLoop=1;jettySize=auto;html=1;endArrow=open;endFill=0;endSize=10;" parent="WIyWlLk6GJQsqaUBKTNV-1" source="6hNlM7lMKpfNJvF36o9Y-48" target="6hNlM7lMKpfNJvF36o9Y-55" edge="1">
          <mxGeometry relative="1" as="geometry">
            <Array as="points">
              <mxPoint x="649" y="703" />
              <mxPoint x="649" y="703" />
            </Array>
          </mxGeometry>
        </mxCell>
        <mxCell id="6hNlM7lMKpfNJvF36o9Y-69" value="1" style="edgeLabel;html=1;align=center;verticalAlign=middle;resizable=0;points=[];" parent="6hNlM7lMKpfNJvF36o9Y-68" vertex="1" connectable="0">
          <mxGeometry x="0.6673" y="-1" relative="1" as="geometry">
            <mxPoint x="-5" y="-1" as="offset" />
          </mxGeometry>
        </mxCell>
        <mxCell id="6hNlM7lMKpfNJvF36o9Y-70" value="0..*" style="edgeLabel;html=1;align=center;verticalAlign=middle;resizable=0;points=[];" parent="6hNlM7lMKpfNJvF36o9Y-68" vertex="1" connectable="0">
          <mxGeometry x="-0.7401" y="1" relative="1" as="geometry">
            <mxPoint x="8" as="offset" />
          </mxGeometry>
        </mxCell>
        <mxCell id="6hNlM7lMKpfNJvF36o9Y-85" style="edgeStyle=orthogonalEdgeStyle;rounded=0;orthogonalLoop=1;jettySize=auto;html=1;endArrow=open;endFill=0;endSize=10;" parent="WIyWlLk6GJQsqaUBKTNV-1" source="6hNlM7lMKpfNJvF36o9Y-48" target="6hNlM7lMKpfNJvF36o9Y-77" edge="1">
          <mxGeometry relative="1" as="geometry">
            <Array as="points" />
          </mxGeometry>
        </mxCell>
        <mxCell id="6hNlM7lMKpfNJvF36o9Y-86" value="0..*" style="edgeLabel;html=1;align=center;verticalAlign=middle;resizable=0;points=[];" parent="6hNlM7lMKpfNJvF36o9Y-85" vertex="1" connectable="0">
          <mxGeometry x="0.6398" y="2" relative="1" as="geometry">
            <mxPoint as="offset" />
          </mxGeometry>
        </mxCell>
        <mxCell id="6hNlM7lMKpfNJvF36o9Y-87" value="1" style="edgeLabel;html=1;align=center;verticalAlign=middle;resizable=0;points=[];" parent="6hNlM7lMKpfNJvF36o9Y-85" vertex="1" connectable="0">
          <mxGeometry x="-0.8834" y="-1" relative="1" as="geometry">
            <mxPoint y="7" as="offset" />
          </mxGeometry>
        </mxCell>
        <mxCell id="6hNlM7lMKpfNJvF36o9Y-48" value="Person" style="swimlane;fontStyle=0;childLayout=stackLayout;horizontal=1;startSize=26;fillColor=none;horizontalStack=0;resizeParent=1;resizeParentMax=0;resizeLast=0;collapsible=1;marginBottom=0;" parent="WIyWlLk6GJQsqaUBKTNV-1" vertex="1">
          <mxGeometry x="450" y="617" width="140" height="130" as="geometry" />
        </mxCell>
        <mxCell id="6hNlM7lMKpfNJvF36o9Y-49" value="- id: Integer" style="text;strokeColor=none;fillColor=none;align=left;verticalAlign=top;spacingLeft=4;spacingRight=4;overflow=hidden;rotatable=0;points=[[0,0.5],[1,0.5]];portConstraint=eastwest;" parent="6hNlM7lMKpfNJvF36o9Y-48" vertex="1">
          <mxGeometry y="26" width="140" height="26" as="geometry" />
        </mxCell>
        <mxCell id="6hNlM7lMKpfNJvF36o9Y-50" value="- name: String" style="text;strokeColor=none;fillColor=none;align=left;verticalAlign=top;spacingLeft=4;spacingRight=4;overflow=hidden;rotatable=0;points=[[0,0.5],[1,0.5]];portConstraint=eastwest;" parent="6hNlM7lMKpfNJvF36o9Y-48" vertex="1">
          <mxGeometry y="52" width="140" height="26" as="geometry" />
        </mxCell>
        <mxCell id="6hNlM7lMKpfNJvF36o9Y-51" value="- phone: String" style="text;strokeColor=none;fillColor=none;align=left;verticalAlign=top;spacingLeft=4;spacingRight=4;overflow=hidden;rotatable=0;points=[[0,0.5],[1,0.5]];portConstraint=eastwest;" parent="6hNlM7lMKpfNJvF36o9Y-48" vertex="1">
          <mxGeometry y="78" width="140" height="26" as="geometry" />
        </mxCell>
        <mxCell id="6hNlM7lMKpfNJvF36o9Y-71" value="- email: String" style="text;strokeColor=none;fillColor=none;align=left;verticalAlign=top;spacingLeft=4;spacingRight=4;overflow=hidden;rotatable=0;points=[[0,0.5],[1,0.5]];portConstraint=eastwest;" parent="6hNlM7lMKpfNJvF36o9Y-48" vertex="1">
          <mxGeometry y="104" width="140" height="26" as="geometry" />
        </mxCell>
        <mxCell id="6hNlM7lMKpfNJvF36o9Y-55" value="LeadGroup" style="swimlane;fontStyle=0;childLayout=stackLayout;horizontal=1;startSize=26;fillColor=none;horizontalStack=0;resizeParent=1;resizeParentMax=0;resizeLast=0;collapsible=1;marginBottom=0;" parent="WIyWlLk6GJQsqaUBKTNV-1" vertex="1">
          <mxGeometry x="679" y="643" width="100" height="78" as="geometry" />
        </mxCell>
        <mxCell id="6hNlM7lMKpfNJvF36o9Y-56" value="- id: Short" style="text;strokeColor=none;fillColor=none;align=left;verticalAlign=top;spacingLeft=4;spacingRight=4;overflow=hidden;rotatable=0;points=[[0,0.5],[1,0.5]];portConstraint=eastwest;" parent="6hNlM7lMKpfNJvF36o9Y-55" vertex="1">
          <mxGeometry y="26" width="100" height="26" as="geometry" />
        </mxCell>
        <mxCell id="6hNlM7lMKpfNJvF36o9Y-57" value="- name: String" style="text;strokeColor=none;fillColor=none;align=left;verticalAlign=top;spacingLeft=4;spacingRight=4;overflow=hidden;rotatable=0;points=[[0,0.5],[1,0.5]];portConstraint=eastwest;" parent="6hNlM7lMKpfNJvF36o9Y-55" vertex="1">
          <mxGeometry y="52" width="100" height="26" as="geometry" />
        </mxCell>
        <mxCell id="6hNlM7lMKpfNJvF36o9Y-60" value="" style="edgeStyle=orthogonalEdgeStyle;rounded=0;orthogonalLoop=1;jettySize=auto;html=1;endArrow=none;endFill=0;endSize=10;" parent="WIyWlLk6GJQsqaUBKTNV-1" source="6hNlM7lMKpfNJvF36o9Y-59" target="6hNlM7lMKpfNJvF36o9Y-55" edge="1">
          <mxGeometry relative="1" as="geometry">
            <Array as="points">
              <mxPoint x="719" y="733" />
              <mxPoint x="719" y="733" />
            </Array>
          </mxGeometry>
        </mxCell>
        <mxCell id="6hNlM7lMKpfNJvF36o9Y-59" value="name can be:&lt;br&gt;- customer&lt;br&gt;- lead" style="shape=note2;boundedLbl=1;whiteSpace=wrap;html=1;size=25;verticalAlign=top;align=center;" parent="WIyWlLk6GJQsqaUBKTNV-1" vertex="1">
          <mxGeometry x="649" y="747" width="100" height="86" as="geometry" />
        </mxCell>
        <mxCell id="6hNlM7lMKpfNJvF36o9Y-65" style="edgeStyle=orthogonalEdgeStyle;rounded=0;orthogonalLoop=1;jettySize=auto;html=1;endArrow=none;endFill=0;endSize=10;" parent="WIyWlLk6GJQsqaUBKTNV-1" source="6hNlM7lMKpfNJvF36o9Y-62" target="zkfFHV4jXpPFQw0GAbJ--0" edge="1">
          <mxGeometry relative="1" as="geometry">
            <Array as="points">
              <mxPoint x="296" y="760" />
              <mxPoint x="296" y="760" />
            </Array>
          </mxGeometry>
        </mxCell>
        <mxCell id="6hNlM7lMKpfNJvF36o9Y-62" value="&amp;lt;&amp;lt;enumeration&amp;gt;&amp;gt;&lt;br&gt;&lt;b&gt;Gender&lt;/b&gt;" style="swimlane;fontStyle=0;align=center;verticalAlign=top;childLayout=stackLayout;horizontal=1;startSize=40;horizontalStack=0;resizeParent=1;resizeParentMax=0;resizeLast=0;collapsible=0;marginBottom=0;html=1;" parent="WIyWlLk6GJQsqaUBKTNV-1" vertex="1">
          <mxGeometry x="246" y="790" width="100" height="100" as="geometry" />
        </mxCell>
        <mxCell id="6hNlM7lMKpfNJvF36o9Y-63" value="MALE" style="text;html=1;strokeColor=none;fillColor=none;align=left;verticalAlign=middle;spacingLeft=4;spacingRight=4;overflow=hidden;rotatable=0;points=[[0,0.5],[1,0.5]];portConstraint=eastwest;" parent="6hNlM7lMKpfNJvF36o9Y-62" vertex="1">
          <mxGeometry y="40" width="100" height="30" as="geometry" />
        </mxCell>
        <mxCell id="6hNlM7lMKpfNJvF36o9Y-64" value="FEMALE" style="text;html=1;strokeColor=none;fillColor=none;align=left;verticalAlign=middle;spacingLeft=4;spacingRight=4;overflow=hidden;rotatable=0;points=[[0,0.5],[1,0.5]];portConstraint=eastwest;" parent="6hNlM7lMKpfNJvF36o9Y-62" vertex="1">
          <mxGeometry y="70" width="100" height="30" as="geometry" />
        </mxCell>
        <mxCell id="6hNlM7lMKpfNJvF36o9Y-77" value="PersonAddress" style="swimlane;fontStyle=0;align=center;verticalAlign=top;childLayout=stackLayout;horizontal=1;startSize=26;horizontalStack=0;resizeParent=1;resizeLast=0;collapsible=1;marginBottom=0;rounded=0;shadow=0;strokeWidth=1;" parent="WIyWlLk6GJQsqaUBKTNV-1" vertex="1">
          <mxGeometry x="499" y="813" width="130" height="190" as="geometry">
            <mxRectangle x="340" y="380" width="170" height="26" as="alternateBounds" />
          </mxGeometry>
        </mxCell>
        <mxCell id="6hNlM7lMKpfNJvF36o9Y-78" value="- id: Long" style="text;align=left;verticalAlign=top;spacingLeft=4;spacingRight=4;overflow=hidden;rotatable=0;points=[[0,0.5],[1,0.5]];portConstraint=eastwest;" parent="6hNlM7lMKpfNJvF36o9Y-77" vertex="1">
          <mxGeometry y="26" width="130" height="26" as="geometry" />
        </mxCell>
        <mxCell id="6hNlM7lMKpfNJvF36o9Y-79" value="- country: String" style="text;align=left;verticalAlign=top;spacingLeft=4;spacingRight=4;overflow=hidden;rotatable=0;points=[[0,0.5],[1,0.5]];portConstraint=eastwest;" parent="6hNlM7lMKpfNJvF36o9Y-77" vertex="1">
          <mxGeometry y="52" width="130" height="26" as="geometry" />
        </mxCell>
        <mxCell id="6hNlM7lMKpfNJvF36o9Y-80" value="- city: String" style="text;align=left;verticalAlign=top;spacingLeft=4;spacingRight=4;overflow=hidden;rotatable=0;points=[[0,0.5],[1,0.5]];portConstraint=eastwest;" parent="6hNlM7lMKpfNJvF36o9Y-77" vertex="1">
          <mxGeometry y="78" width="130" height="26" as="geometry" />
        </mxCell>
        <mxCell id="6hNlM7lMKpfNJvF36o9Y-81" value="- state: String" style="text;align=left;verticalAlign=top;spacingLeft=4;spacingRight=4;overflow=hidden;rotatable=0;points=[[0,0.5],[1,0.5]];portConstraint=eastwest;" parent="6hNlM7lMKpfNJvF36o9Y-77" vertex="1">
          <mxGeometry y="104" width="130" height="26" as="geometry" />
        </mxCell>
        <mxCell id="6hNlM7lMKpfNJvF36o9Y-82" value="- zipCode: String" style="text;align=left;verticalAlign=top;spacingLeft=4;spacingRight=4;overflow=hidden;rotatable=0;points=[[0,0.5],[1,0.5]];portConstraint=eastwest;" parent="6hNlM7lMKpfNJvF36o9Y-77" vertex="1">
          <mxGeometry y="130" width="130" height="26" as="geometry" />
        </mxCell>
        <mxCell id="6hNlM7lMKpfNJvF36o9Y-83" value="- address: String" style="text;align=left;verticalAlign=top;spacingLeft=4;spacingRight=4;overflow=hidden;rotatable=0;points=[[0,0.5],[1,0.5]];portConstraint=eastwest;" parent="6hNlM7lMKpfNJvF36o9Y-77" vertex="1">
          <mxGeometry y="156" width="130" height="26" as="geometry" />
        </mxCell>
        <mxCell id="6hNlM7lMKpfNJvF36o9Y-97" style="edgeStyle=orthogonalEdgeStyle;rounded=0;orthogonalLoop=1;jettySize=auto;html=1;endArrow=open;endFill=0;endSize=10;" parent="WIyWlLk6GJQsqaUBKTNV-1" source="6hNlM7lMKpfNJvF36o9Y-92" target="zkfFHV4jXpPFQw0GAbJ--0" edge="1">
          <mxGeometry relative="1" as="geometry">
            <Array as="points">
              <mxPoint x="290" y="380" />
              <mxPoint x="290" y="433" />
              <mxPoint x="296" y="433" />
            </Array>
          </mxGeometry>
        </mxCell>
        <mxCell id="6hNlM7lMKpfNJvF36o9Y-99" value="0..*" style="edgeLabel;html=1;align=center;verticalAlign=middle;resizable=0;points=[];" parent="6hNlM7lMKpfNJvF36o9Y-97" vertex="1" connectable="0">
          <mxGeometry x="-0.8184" y="-1" relative="1" as="geometry">
            <mxPoint y="5" as="offset" />
          </mxGeometry>
        </mxCell>
        <mxCell id="6hNlM7lMKpfNJvF36o9Y-101" value="owner" style="edgeLabel;html=1;align=center;verticalAlign=middle;resizable=0;points=[];" parent="6hNlM7lMKpfNJvF36o9Y-97" vertex="1" connectable="0">
          <mxGeometry x="-0.2088" y="-1" relative="1" as="geometry">
            <mxPoint y="4" as="offset" />
          </mxGeometry>
        </mxCell>
        <mxCell id="6hNlM7lMKpfNJvF36o9Y-113" style="edgeStyle=orthogonalEdgeStyle;rounded=0;orthogonalLoop=1;jettySize=auto;html=1;endArrow=open;endFill=0;endSize=10;" parent="WIyWlLk6GJQsqaUBKTNV-1" source="6hNlM7lMKpfNJvF36o9Y-92" target="6hNlM7lMKpfNJvF36o9Y-20" edge="1">
          <mxGeometry relative="1" as="geometry">
            <Array as="points">
              <mxPoint x="520" y="343" />
            </Array>
          </mxGeometry>
        </mxCell>
        <mxCell id="6hNlM7lMKpfNJvF36o9Y-114" value="1" style="edgeLabel;html=1;align=center;verticalAlign=middle;resizable=0;points=[];" parent="6hNlM7lMKpfNJvF36o9Y-113" vertex="1" connectable="0">
          <mxGeometry x="0.7198" y="-1" relative="1" as="geometry">
            <mxPoint as="offset" />
          </mxGeometry>
        </mxCell>
        <mxCell id="6hNlM7lMKpfNJvF36o9Y-115" value="0..*" style="edgeLabel;html=1;align=center;verticalAlign=middle;resizable=0;points=[];" parent="6hNlM7lMKpfNJvF36o9Y-113" vertex="1" connectable="0">
          <mxGeometry x="-0.904" y="1" relative="1" as="geometry">
            <mxPoint x="7" as="offset" />
          </mxGeometry>
        </mxCell>
        <mxCell id="6hNlM7lMKpfNJvF36o9Y-116" style="edgeStyle=orthogonalEdgeStyle;rounded=0;orthogonalLoop=1;jettySize=auto;html=1;endArrow=open;endFill=0;endSize=10;" parent="WIyWlLk6GJQsqaUBKTNV-1" source="6hNlM7lMKpfNJvF36o9Y-92" target="6hNlM7lMKpfNJvF36o9Y-48" edge="1">
          <mxGeometry relative="1" as="geometry">
            <Array as="points">
              <mxPoint x="410" y="423" />
              <mxPoint x="410" y="643" />
            </Array>
          </mxGeometry>
        </mxCell>
        <mxCell id="6hNlM7lMKpfNJvF36o9Y-117" value="contactPerson" style="edgeLabel;html=1;align=center;verticalAlign=middle;resizable=0;points=[];" parent="6hNlM7lMKpfNJvF36o9Y-116" vertex="1" connectable="0">
          <mxGeometry x="-0.153" y="-1" relative="1" as="geometry">
            <mxPoint as="offset" />
          </mxGeometry>
        </mxCell>
        <mxCell id="6hNlM7lMKpfNJvF36o9Y-118" value="0..1" style="edgeLabel;html=1;align=center;verticalAlign=middle;resizable=0;points=[];" parent="6hNlM7lMKpfNJvF36o9Y-116" vertex="1" connectable="0">
          <mxGeometry x="0.7509" relative="1" as="geometry">
            <mxPoint as="offset" />
          </mxGeometry>
        </mxCell>
        <mxCell id="6hNlM7lMKpfNJvF36o9Y-119" value="0..*" style="edgeLabel;html=1;align=center;verticalAlign=middle;resizable=0;points=[];" parent="6hNlM7lMKpfNJvF36o9Y-116" vertex="1" connectable="0">
          <mxGeometry x="-0.9054" relative="1" as="geometry">
            <mxPoint as="offset" />
          </mxGeometry>
        </mxCell>
        <mxCell id="aLG8cIRjWpftHJLMq3h6-14" style="edgeStyle=orthogonalEdgeStyle;rounded=0;orthogonalLoop=1;jettySize=auto;html=1;endArrow=open;endFill=0;" parent="WIyWlLk6GJQsqaUBKTNV-1" source="6hNlM7lMKpfNJvF36o9Y-92" target="aLG8cIRjWpftHJLMq3h6-8" edge="1">
          <mxGeometry relative="1" as="geometry">
            <Array as="points">
              <mxPoint x="540" y="305" />
              <mxPoint x="540" y="305" />
            </Array>
          </mxGeometry>
        </mxCell>
        <mxCell id="aLG8cIRjWpftHJLMq3h6-15" value="0..*" style="edgeLabel;html=1;align=center;verticalAlign=middle;resizable=0;points=[];" parent="aLG8cIRjWpftHJLMq3h6-14" vertex="1" connectable="0">
          <mxGeometry x="-0.7114" y="2" relative="1" as="geometry">
            <mxPoint as="offset" />
          </mxGeometry>
        </mxCell>
        <mxCell id="aLG8cIRjWpftHJLMq3h6-16" value="0..1" style="edgeLabel;html=1;align=center;verticalAlign=middle;resizable=0;points=[];" parent="aLG8cIRjWpftHJLMq3h6-14" vertex="1" connectable="0">
          <mxGeometry x="0.7509" y="1" relative="1" as="geometry">
            <mxPoint x="-8" as="offset" />
          </mxGeometry>
        </mxCell>
        <mxCell id="6hNlM7lMKpfNJvF36o9Y-92" value="Deal" style="swimlane;fontStyle=0;align=center;verticalAlign=top;childLayout=stackLayout;horizontal=1;startSize=26;horizontalStack=0;resizeParent=1;resizeLast=0;collapsible=1;marginBottom=0;rounded=0;shadow=0;strokeWidth=1;" parent="WIyWlLk6GJQsqaUBKTNV-1" vertex="1">
          <mxGeometry x="342" y="253" width="144" height="156" as="geometry">
            <mxRectangle x="130" y="380" width="160" height="26" as="alternateBounds" />
          </mxGeometry>
        </mxCell>
        <mxCell id="6hNlM7lMKpfNJvF36o9Y-93" value="- id: Long" style="text;align=left;verticalAlign=top;spacingLeft=4;spacingRight=4;overflow=hidden;rotatable=0;points=[[0,0.5],[1,0.5]];portConstraint=eastwest;" parent="6hNlM7lMKpfNJvF36o9Y-92" vertex="1">
          <mxGeometry y="26" width="144" height="26" as="geometry" />
        </mxCell>
        <mxCell id="6hNlM7lMKpfNJvF36o9Y-94" value="- description: String" style="text;align=left;verticalAlign=top;spacingLeft=4;spacingRight=4;overflow=hidden;rotatable=0;points=[[0,0.5],[1,0.5]];portConstraint=eastwest;" parent="6hNlM7lMKpfNJvF36o9Y-92" vertex="1">
          <mxGeometry y="52" width="144" height="26" as="geometry" />
        </mxCell>
        <mxCell id="6hNlM7lMKpfNJvF36o9Y-95" value="- value: Long" style="text;align=left;verticalAlign=top;spacingLeft=4;spacingRight=4;overflow=hidden;rotatable=0;points=[[0,0.5],[1,0.5]];portConstraint=eastwest;" parent="6hNlM7lMKpfNJvF36o9Y-92" vertex="1">
          <mxGeometry y="78" width="144" height="26" as="geometry" />
        </mxCell>
        <mxCell id="6hNlM7lMKpfNJvF36o9Y-100" value="- closingDate: LocalDate" style="text;align=left;verticalAlign=top;spacingLeft=4;spacingRight=4;overflow=hidden;rotatable=0;points=[[0,0.5],[1,0.5]];portConstraint=eastwest;" parent="6hNlM7lMKpfNJvF36o9Y-92" vertex="1">
          <mxGeometry y="104" width="144" height="26" as="geometry" />
        </mxCell>
        <mxCell id="aLG8cIRjWpftHJLMq3h6-5" style="edgeStyle=orthogonalEdgeStyle;rounded=0;orthogonalLoop=1;jettySize=auto;html=1;" parent="WIyWlLk6GJQsqaUBKTNV-1" source="aLG8cIRjWpftHJLMq3h6-0" target="6hNlM7lMKpfNJvF36o9Y-92" edge="1">
          <mxGeometry relative="1" as="geometry">
            <Array as="points">
              <mxPoint x="240" y="340" />
              <mxPoint x="240" y="340" />
            </Array>
          </mxGeometry>
        </mxCell>
        <mxCell id="aLG8cIRjWpftHJLMq3h6-6" value="1" style="edgeLabel;html=1;align=center;verticalAlign=middle;resizable=0;points=[];" parent="aLG8cIRjWpftHJLMq3h6-5" vertex="1" connectable="0">
          <mxGeometry x="0.7062" relative="1" as="geometry">
            <mxPoint as="offset" />
          </mxGeometry>
        </mxCell>
        <mxCell id="aLG8cIRjWpftHJLMq3h6-7" value="0..*" style="edgeLabel;html=1;align=center;verticalAlign=middle;resizable=0;points=[];" parent="aLG8cIRjWpftHJLMq3h6-5" vertex="1" connectable="0">
          <mxGeometry x="-0.7614" y="-4" relative="1" as="geometry">
            <mxPoint as="offset" />
          </mxGeometry>
        </mxCell>
        <mxCell id="9pqVWcKdIJiDRD3snbKj-9" style="edgeStyle=orthogonalEdgeStyle;rounded=0;orthogonalLoop=1;jettySize=auto;html=1;entryX=0.25;entryY=0;entryDx=0;entryDy=0;endArrow=open;endFill=0;endSize=10;" edge="1" parent="WIyWlLk6GJQsqaUBKTNV-1" source="aLG8cIRjWpftHJLMq3h6-0" target="zkfFHV4jXpPFQw0GAbJ--0">
          <mxGeometry relative="1" as="geometry">
            <Array as="points">
              <mxPoint x="259" y="385" />
            </Array>
          </mxGeometry>
        </mxCell>
        <mxCell id="9pqVWcKdIJiDRD3snbKj-10" value="owner" style="edgeLabel;html=1;align=center;verticalAlign=middle;resizable=0;points=[];" vertex="1" connectable="0" parent="9pqVWcKdIJiDRD3snbKj-9">
          <mxGeometry x="0.1811" y="-3" relative="1" as="geometry">
            <mxPoint as="offset" />
          </mxGeometry>
        </mxCell>
        <mxCell id="9pqVWcKdIJiDRD3snbKj-11" value="1" style="edgeLabel;html=1;align=center;verticalAlign=middle;resizable=0;points=[];" vertex="1" connectable="0" parent="9pqVWcKdIJiDRD3snbKj-9">
          <mxGeometry x="0.7474" y="1" relative="1" as="geometry">
            <mxPoint as="offset" />
          </mxGeometry>
        </mxCell>
        <mxCell id="9pqVWcKdIJiDRD3snbKj-12" value="0..*" style="edgeLabel;html=1;align=center;verticalAlign=middle;resizable=0;points=[];" vertex="1" connectable="0" parent="9pqVWcKdIJiDRD3snbKj-9">
          <mxGeometry x="-0.8415" relative="1" as="geometry">
            <mxPoint as="offset" />
          </mxGeometry>
        </mxCell>
        <mxCell id="aLG8cIRjWpftHJLMq3h6-0" value="Proposal" style="swimlane;fontStyle=0;align=center;verticalAlign=top;childLayout=stackLayout;horizontal=1;startSize=26;horizontalStack=0;resizeParent=1;resizeLast=0;collapsible=1;marginBottom=0;rounded=0;shadow=0;strokeWidth=1;" parent="WIyWlLk6GJQsqaUBKTNV-1" vertex="1">
          <mxGeometry x="50" y="327" width="144" height="116" as="geometry">
            <mxRectangle x="130" y="380" width="160" height="26" as="alternateBounds" />
          </mxGeometry>
        </mxCell>
        <mxCell id="aLG8cIRjWpftHJLMq3h6-1" value="- id: Long" style="text;align=left;verticalAlign=top;spacingLeft=4;spacingRight=4;overflow=hidden;rotatable=0;points=[[0,0.5],[1,0.5]];portConstraint=eastwest;" parent="aLG8cIRjWpftHJLMq3h6-0" vertex="1">
          <mxGeometry y="26" width="144" height="26" as="geometry" />
        </mxCell>
        <mxCell id="aLG8cIRjWpftHJLMq3h6-2" value="- subject: String" style="text;align=left;verticalAlign=top;spacingLeft=4;spacingRight=4;overflow=hidden;rotatable=0;points=[[0,0.5],[1,0.5]];portConstraint=eastwest;" parent="aLG8cIRjWpftHJLMq3h6-0" vertex="1">
          <mxGeometry y="52" width="144" height="26" as="geometry" />
        </mxCell>
        <mxCell id="aLG8cIRjWpftHJLMq3h6-3" value="- content: String" style="text;align=left;verticalAlign=top;spacingLeft=4;spacingRight=4;overflow=hidden;rotatable=0;points=[[0,0.5],[1,0.5]];portConstraint=eastwest;" parent="aLG8cIRjWpftHJLMq3h6-0" vertex="1">
          <mxGeometry y="78" width="144" height="26" as="geometry" />
        </mxCell>
        <mxCell id="aLG8cIRjWpftHJLMq3h6-8" value="Pipeline" style="swimlane;fontStyle=0;align=center;verticalAlign=top;childLayout=stackLayout;horizontal=1;startSize=26;horizontalStack=0;resizeParent=1;resizeLast=0;collapsible=1;marginBottom=0;rounded=0;shadow=0;strokeWidth=1;" parent="WIyWlLk6GJQsqaUBKTNV-1" vertex="1">
          <mxGeometry x="600" y="260" width="144" height="90" as="geometry">
            <mxRectangle x="130" y="380" width="160" height="26" as="alternateBounds" />
          </mxGeometry>
        </mxCell>
        <mxCell id="aLG8cIRjWpftHJLMq3h6-9" value="- id: Short" style="text;align=left;verticalAlign=top;spacingLeft=4;spacingRight=4;overflow=hidden;rotatable=0;points=[[0,0.5],[1,0.5]];portConstraint=eastwest;" parent="aLG8cIRjWpftHJLMq3h6-8" vertex="1">
          <mxGeometry y="26" width="144" height="26" as="geometry" />
        </mxCell>
        <mxCell id="aLG8cIRjWpftHJLMq3h6-10" value="- name: String" style="text;align=left;verticalAlign=top;spacingLeft=4;spacingRight=4;overflow=hidden;rotatable=0;points=[[0,0.5],[1,0.5]];portConstraint=eastwest;" parent="aLG8cIRjWpftHJLMq3h6-8" vertex="1">
          <mxGeometry y="52" width="144" height="26" as="geometry" />
        </mxCell>
        <mxCell id="aLG8cIRjWpftHJLMq3h6-13" style="edgeStyle=orthogonalEdgeStyle;rounded=0;orthogonalLoop=1;jettySize=auto;html=1;endArrow=none;endFill=0;" parent="WIyWlLk6GJQsqaUBKTNV-1" source="aLG8cIRjWpftHJLMq3h6-12" target="aLG8cIRjWpftHJLMq3h6-8" edge="1">
          <mxGeometry relative="1" as="geometry">
            <Array as="points">
              <mxPoint x="670" y="203" />
              <mxPoint x="670" y="203" />
            </Array>
          </mxGeometry>
        </mxCell>
        <mxCell id="aLG8cIRjWpftHJLMq3h6-12" value="name can be:&lt;br&gt;-&amp;nbsp;&lt;span&gt;Advertising&lt;/span&gt;&lt;span&gt;&amp;nbsp; &amp;nbsp;&lt;/span&gt;&lt;span&gt;&lt;br&gt;&lt;/span&gt;- Promotion&lt;br&gt;- Branding" style="shape=note2;boundedLbl=1;whiteSpace=wrap;html=1;size=25;verticalAlign=top;align=center;" parent="WIyWlLk6GJQsqaUBKTNV-1" vertex="1">
          <mxGeometry x="629" y="123" width="100" height="100" as="geometry" />
        </mxCell>
        <mxCell id="9pqVWcKdIJiDRD3snbKj-15" style="edgeStyle=orthogonalEdgeStyle;rounded=0;orthogonalLoop=1;jettySize=auto;html=1;endArrow=none;endFill=0;endSize=10;" edge="1" parent="WIyWlLk6GJQsqaUBKTNV-1" source="9pqVWcKdIJiDRD3snbKj-1" target="6hNlM7lMKpfNJvF36o9Y-0">
          <mxGeometry relative="1" as="geometry" />
        </mxCell>
        <mxCell id="9pqVWcKdIJiDRD3snbKj-1" value="name can be:&lt;br&gt;- ADMIN&lt;span&gt;&lt;br&gt;&lt;/span&gt;- MANAGER&lt;br&gt;- AGENT&lt;br&gt;- CLIENT" style="shape=note2;boundedLbl=1;whiteSpace=wrap;html=1;size=25;verticalAlign=top;align=center;" vertex="1" parent="WIyWlLk6GJQsqaUBKTNV-1">
          <mxGeometry x="50" y="730" width="100" height="120" as="geometry" />
        </mxCell>
        <mxCell id="9pqVWcKdIJiDRD3snbKj-8" style="edgeStyle=orthogonalEdgeStyle;rounded=0;orthogonalLoop=1;jettySize=auto;html=1;endArrow=none;endFill=0;" edge="1" parent="WIyWlLk6GJQsqaUBKTNV-1" source="9pqVWcKdIJiDRD3snbKj-3" target="aLG8cIRjWpftHJLMq3h6-0">
          <mxGeometry relative="1" as="geometry">
            <Array as="points">
              <mxPoint x="100" y="290" />
              <mxPoint x="100" y="290" />
            </Array>
          </mxGeometry>
        </mxCell>
        <mxCell id="9pqVWcKdIJiDRD3snbKj-3" value="&amp;lt;&amp;lt;enumeration&amp;gt;&amp;gt;&lt;br&gt;&lt;b&gt;ProposalStatus&lt;/b&gt;" style="swimlane;fontStyle=0;align=center;verticalAlign=top;childLayout=stackLayout;horizontal=1;startSize=40;horizontalStack=0;resizeParent=1;resizeParentMax=0;resizeLast=0;collapsible=0;marginBottom=0;html=1;" vertex="1" parent="WIyWlLk6GJQsqaUBKTNV-1">
          <mxGeometry x="70" y="120" width="100" height="160" as="geometry" />
        </mxCell>
        <mxCell id="9pqVWcKdIJiDRD3snbKj-4" value="NO_REPLY" style="text;html=1;strokeColor=none;fillColor=none;align=left;verticalAlign=middle;spacingLeft=4;spacingRight=4;overflow=hidden;rotatable=0;points=[[0,0.5],[1,0.5]];portConstraint=eastwest;" vertex="1" parent="9pqVWcKdIJiDRD3snbKj-3">
          <mxGeometry y="40" width="100" height="30" as="geometry" />
        </mxCell>
        <mxCell id="9pqVWcKdIJiDRD3snbKj-5" value="ACCEPTED" style="text;html=1;strokeColor=none;fillColor=none;align=left;verticalAlign=middle;spacingLeft=4;spacingRight=4;overflow=hidden;rotatable=0;points=[[0,0.5],[1,0.5]];portConstraint=eastwest;" vertex="1" parent="9pqVWcKdIJiDRD3snbKj-3">
          <mxGeometry y="70" width="100" height="30" as="geometry" />
        </mxCell>
        <mxCell id="9pqVWcKdIJiDRD3snbKj-6" value="REJECTED" style="text;html=1;strokeColor=none;fillColor=none;align=left;verticalAlign=middle;spacingLeft=4;spacingRight=4;overflow=hidden;rotatable=0;points=[[0,0.5],[1,0.5]];portConstraint=eastwest;" vertex="1" parent="9pqVWcKdIJiDRD3snbKj-3">
          <mxGeometry y="100" width="100" height="30" as="geometry" />
        </mxCell>
        <mxCell id="9pqVWcKdIJiDRD3snbKj-7" value="DRAFT" style="text;html=1;strokeColor=none;fillColor=none;align=left;verticalAlign=middle;spacingLeft=4;spacingRight=4;overflow=hidden;rotatable=0;points=[[0,0.5],[1,0.5]];portConstraint=eastwest;" vertex="1" parent="9pqVWcKdIJiDRD3snbKj-3">
          <mxGeometry y="130" width="100" height="30" as="geometry" />
        </mxCell>
      </root>
    </mxGraphModel>
  </diagram>
</mxfile>
